<svg xmlns="http://www.w3.org/2000/svg" xmlns:xlink="http://www.w3.org/1999/xlink" width="271.228" height="305.689" viewBox="0 0 271.228 305.689">
  <defs>
    <linearGradient id="linear-gradient" x1="0.5" x2="0.5" y2="1" gradientUnits="objectBoundingBox">
      <stop offset="0" stop-color="#51a7d8"/>
      <stop offset="1" stop-color="#015c93"/>
    </linearGradient>
    <filter id="Path_206" x="0" y="0" width="271.228" height="305.689" filterUnits="userSpaceOnUse">
      <feOffset dy="3" input="SourceAlpha"/>
      <feGaussianBlur stdDeviation="5" result="blur"/>
      <feFlood flood-color="#3a3b61" flood-opacity="0.239"/>
      <feComposite operator="in" in2="blur"/>
      <feComposite in="SourceGraphic"/>
    </filter>
    <filter id="Shape" x="51.149" y="90.761" width="168.414" height="85.707" filterUnits="userSpaceOnUse">
      <feOffset dy="1" input="SourceAlpha"/>
      <feGaussianBlur stdDeviation="0.5" result="blur-2"/>
      <feFlood flood-color="#010226" flood-opacity="0.239"/>
      <feComposite operator="in" in2="blur-2"/>
      <feComposite in="SourceGraphic"/>
    </filter>
    <linearGradient id="linear-gradient-2" x1="0.803" y1="0.061" x2="0.206" xlink:href="#linear-gradient"/>
  </defs>
  <g id="Group_582" data-name="Group 582" transform="translate(-228 -160)">
    <g id="Logo" transform="translate(243 172)">
      <g transform="matrix(1, 0, 0, 1, -15, -12)" filter="url(#Path_206)">
        <path id="Path_206-2" data-name="Path 206" d="M120.614,0c66.613,0,120.614,54.117,120.614,120.874,0,57.611-40.218,105.809-95.129,118.171-7.47,1.688-16.359,36.644-25.485,36.644-10.125,0-19.959-35.191-30.266-37.777C38.832,225.005,0,177.484,0,120.874,0,54.117,54,0,120.614,0Z" transform="translate(15 12)" fill="url(#linear-gradient)"/>
      </g>
      <g id="Group_581" data-name="Group 581" transform="translate(37.649 79.261)">
        <g transform="matrix(1, 0, 0, 1, -52.65, -91.26)" filter="url(#Shape)">
          <path id="Shape-2" data-name="Shape" d="M161.763,28.855,84.582.335a5.482,5.482,0,0,0-3.767,0L3.653,28.855a5.773,5.773,0,0,0,0,10.732L41.348,53.517V71.3c0,11.089,37.129,11.408,41.362,11.408s41.362-.319,41.362-11.408V53.517l8.272-3.037v6.56a5.612,5.612,0,0,0,5.515,5.7h5.515a5.612,5.612,0,0,0,5.515-5.7V48.483a8.671,8.671,0,0,0-.9-3.8l13.787-5.1a5.773,5.773,0,0,0,0-10.732Zm-43.207,36.17c-10.5-4.945-32.635-5.134-35.847-5.134s-25.344.188-35.847,5.134V40.178c1.654-2.2,14.659-5.955,35.847-5.955s34.193,3.759,35.847,5.955ZM82.71,77C62.3,77,49.49,73.518,47.094,71.3c2.4-2.219,15.216-5.7,35.615-5.7s33.219,3.485,35.615,5.7C115.929,73.518,103.115,77,82.71,77Zm50.928-33.07-9.566,3.528V39.927c0-11.089-37.129-11.408-41.362-11.408s-41.362.319-41.362,11.408v7.532L5.5,34.223,82.748,5.7l55.111,20.369v14.38a8.345,8.345,0,0,0-4.222,3.482Zm9.737,13.105h-5.515V48.483a2.759,2.759,0,1,1,5.515,0Zm0-16.7V28.111l16.545,6.112Z" transform="translate(52.64 91.26)" fill="#fff"/>
        </g>
        <path id="Shape-3" data-name="Shape" d="M114.658,60.978c-10.5-4.945-32.635-5.134-35.847-5.134s-25.344.188-35.847,5.134V36.131c1.654-2.2,14.659-5.955,35.847-5.955S113,33.935,114.658,36.131ZM78.811,72.957c-20.405,0-33.219-3.485-35.615-5.7,2.4-2.219,15.216-5.7,35.615-5.7s33.219,3.485,35.615,5.7C112.03,69.471,99.216,72.957,78.811,72.957Zm50.928-33.07-9.566,3.528V35.88c0-11.089-37.129-11.408-41.362-11.408s-41.362.319-41.362,11.408v7.532L1.6,30.176,78.85,1.655,133.96,22.025V36.4a8.345,8.345,0,0,0-4.222,3.482Zm9.737,13.105H133.96V44.436a2.759,2.759,0,1,1,5.515,0Zm0-16.7V24.064l16.545,6.112Z" transform="translate(3.89 4.046)" fill="url(#linear-gradient-2)"/>
      </g>
    </g>
    <path id="Path_226" data-name="Path 226" d="M.836,0H5.5L7.216-8.976h7.26L16.1,0h4.708L13.2-35.64H8.4Zm7.04-12.54L10.824-28.6l2.992,16.06ZM29.92.352a5.471,5.471,0,0,0,4.092-1.98V0H38.72V-35.64H34.012V-23.8a6,6,0,0,0-4.224-1.98c-5.192,0-6.248,5.06-6.248,10.868v4.928C23.54-2.464,25.608.352,29.92.352Zm1.188-3.7c-2.508,0-2.86-2.684-2.86-6.248v-7.172c0-2.9.572-5.324,2.772-5.324a5.385,5.385,0,0,1,2.992,1.1V-4.312A5.42,5.42,0,0,1,31.108-3.344ZM43.472,0h4.356V-20.724a5.948,5.948,0,0,1,3.96-2.068c1.32,0,2.2.66,2.2,3.124V0H58.3V-20.724a5.858,5.858,0,0,1,3.96-2.068c1.32,0,2.2.66,2.2,3.124V0h4.312V-19.976c0-4.224-2.024-5.9-4.488-5.9a8.034,8.034,0,0,0-6.336,3.212,3.983,3.983,0,0,0-4.136-3.212,7.918,7.918,0,0,0-5.984,2.86v-2.42H43.472ZM73.7-29.216h4.708v-4.928H73.7ZM73.7,0h4.708V-25.432H73.7Zm9.768,0h4.708V-20.5a5.746,5.746,0,0,1,3.3-1.584c1.628,0,2.024,1.056,2.024,2.86V0h4.708V-20.592c0-2.464-.792-5.192-3.828-5.192a9.12,9.12,0,0,0-6.2,2.86v-2.508H83.468ZM108.68.352c4.18,0,7.04-2.156,7.04-6.512,0-3.256-1.8-5.192-3.608-6.864l-4.488-4.136a3.338,3.338,0,0,1-1.276-2.552,2.473,2.473,0,0,1,2.508-2.6c2.024,0,2.772,1.76,3.124,4.4l3.168-1.188c-.308-3.7-2.42-6.688-6.468-6.688-3.96,0-6.556,2.244-6.556,6.248a7.564,7.564,0,0,0,3.124,6.2l4.356,3.74a4.721,4.721,0,0,1,2.068,3.784,2.429,2.429,0,0,1-2.6,2.684c-2.156,0-3.212-1.584-3.652-4.84l-3.916,1.188C101.86-2.508,104.5.352,108.68.352Z" transform="translate(305.614 373)" fill="#fff"/>
  </g>
</svg>
